<svg xmlns="http://www.w3.org/2000/svg" xmlns:xlink="http://www.w3.org/1999/xlink" viewBox="0 0 1000.7 1011.93"><defs><style>.b86e0ef8-0f45-4a27-8f59-d519ff42ebb5{fill:url(#ae150e92-b42e-4d6a-89ea-69ab6cb2a771);}.abd25662-7d2b-4260-96e1-ddb8ca59ddb4{font-size:221px;stroke-width:10px;font-family:Roundo;letter-spacing:0.01em;}.a7c3f221-76e1-493a-aa69-5c008622e8c2,.abd25662-7d2b-4260-96e1-ddb8ca59ddb4{stroke:#000;stroke-miterlimit:10;}.ade8ca0c-f9fa-497d-a48d-e6019ba9a6aa{font-size:85px;font-family:NovaRound-Book, Nova Round;letter-spacing:0.01em;}.a1d6f4cf-8f4d-4451-bba6-52db16c97400{letter-spacing:-0.03em;}.fdd62699-94c2-4670-98a3-99a74705bf3b{letter-spacing:0em;}.e74730c3-18ec-489d-999a-7e0a2a68d19f{letter-spacing:0.01em;}</style><linearGradient id="ae150e92-b42e-4d6a-89ea-69ab6cb2a771" x1="477.62" y1="677.52" x2="477.62" y2="6.22" gradientUnits="userSpaceOnUse"><stop offset="0" stop-color="#ff7bac"/><stop offset="0.15" stop-color="#ff8585" stop-opacity="0.77"/><stop offset="0.32" stop-color="#ff8e5d" stop-opacity="0.54"/><stop offset="0.48" stop-color="#ff963c" stop-opacity="0.35"/><stop offset="0.64" stop-color="#ff9d22" stop-opacity="0.2"/><stop offset="0.78" stop-color="#ffa10f" stop-opacity="0.09"/><stop offset="0.91" stop-color="#ffa404" stop-opacity="0.02"/><stop offset="1" stop-color="orange" stop-opacity="0"/></linearGradient></defs><g id="aa0c18e2-b957-46e5-a540-c8f3e0a2edc5" data-name="Capa 7"><circle class="b86e0ef8-0f45-4a27-8f59-d519ff42ebb5" cx="477.62" cy="341.87" r="335.65"/><line x1="288.51" y1="706.96" x2="311.49" y2="694.2"/><path d="M812,770.09l23-12.77c13.51-7.5,1.42-28.24-12.11-20.72l-23,12.76c-13.5,7.5-1.41,28.24,12.11,20.73Z" transform="translate(-517.42 -52.76)"/></g><g id="b2a0fc2b-eb80-4ddc-be58-4727b6786c5e" data-name="Capa 6"><text class="abd25662-7d2b-4260-96e1-ddb8ca59ddb4" transform="translate(5 884.23) scale(1 0.99)">DONALO</text><text class="ade8ca0c-f9fa-497d-a48d-e6019ba9a6aa" transform="translate(322.83 993.72) scale(1 0.99)">BO<tspan class="a1d6f4cf-8f4d-4451-bba6-52db16c97400" x="109.29" y="0">L</tspan><tspan class="fdd62699-94c2-4670-98a3-99a74705bf3b" x="149.41" y="0">IV</tspan><tspan class="e74730c3-18ec-489d-999a-7e0a2a68d19f" x="225.91" y="0">IA</tspan></text></g><g id="b8ea6ecb-d5da-4c29-8951-796505fcad52" data-name="Capa 4 copia 2"><path class="a7c3f221-76e1-493a-aa69-5c008622e8c2" d="M1024.24,325.82a21,21,0,0,1,1,2.09c0-.77.08-1.53.11-2.3Zm0,0a21,21,0,0,1,1,2.09c0-.77.08-1.53.11-2.3Zm0,0a21,21,0,0,1,1,2.09c0-.77.08-1.53.11-2.3Zm0,0a21,21,0,0,1,1,2.09c0-.77.08-1.53.11-2.3Zm0,0a21,21,0,0,1,1,2.09c0-.77.08-1.53.11-2.3Zm0,0a21,21,0,0,1,1,2.09c0-.77.08-1.53.11-2.3Zm0,0a21,21,0,0,1,1,2.09c0-.77.08-1.53.11-2.3Zm0,0a21,21,0,0,1,1,2.09c0-.77.08-1.53.11-2.3Zm0,0a21,21,0,0,1,1,2.09c0-.77.08-1.53.11-2.3ZM992.72,53.26a342.94,342.94,0,0,0-187.84,55.62L812,116a332.55,332.55,0,0,1,366,3.07l7.14-7.13A343,343,0,0,0,992.72,53.26Zm31.52,272.56a21,21,0,0,1,1,2.09c0-.77.08-1.53.11-2.3Zm0,0a21,21,0,0,1,1,2.09c0-.77.08-1.53.11-2.3Zm0,0a21,21,0,0,1,1,2.09c0-.77.08-1.53.11-2.3Zm0,0a21,21,0,0,1,1,2.09c0-.77.08-1.53.11-2.3Zm0,0a21,21,0,0,1,1,2.09c0-.77.08-1.53.11-2.3Zm0,0a21,21,0,0,1,1,2.09c0-.77.08-1.53.11-2.3Zm0,0a21,21,0,0,1,1,2.09c0-.77.08-1.53.11-2.3Zm0,0a21,21,0,0,1,1,2.09c0-.77.08-1.53.11-2.3Zm0,0a21,21,0,0,1,1,2.09c0-.77.08-1.53.11-2.3Z" transform="translate(-517.42 -52.76)"/><path class="a7c3f221-76e1-493a-aa69-5c008622e8c2" d="M1024.24,325.82a21,21,0,0,1,1,2.09c0-.77.08-1.53.11-2.3Zm0,0a21,21,0,0,1,1,2.09c0-.77.08-1.53.11-2.3Zm0,0a21,21,0,0,1,1,2.09c0-.77.08-1.53.11-2.3Zm0,0a21,21,0,0,1,1,2.09c0-.77.08-1.53.11-2.3Zm0,0a21,21,0,0,1,1,2.09c0-.77.08-1.53.11-2.3Zm0,0a21,21,0,0,1,1,2.09c0-.77.08-1.53.11-2.3Zm0,0a21,21,0,0,1,1,2.09c0-.77.08-1.53.11-2.3Zm0,0a21,21,0,0,1,1,2.09c0-.77.08-1.53.11-2.3Zm0,0a21,21,0,0,1,1,2.09c0-.77.08-1.53.11-2.3Zm0,0a21,21,0,0,1,1,2.09c0-.77.08-1.53.11-2.3ZM862.92,560.87l.28.29q.43-.7.84-1.41Zm161.32-235a21,21,0,0,1,1,2.09c0-.77.08-1.53.11-2.3Zm0,0a21,21,0,0,1,1,2.09c0-.77.08-1.53.11-2.3ZM862.92,560.87l.28.29q.43-.7.84-1.41Zm0,0,.28.29q.43-.7.84-1.41Zm161.32-235a21,21,0,0,1,1,2.09c0-.77.08-1.53.11-2.3Zm0,0a21,21,0,0,1,1,2.09c0-.77.08-1.53.11-2.3ZM862.92,560.87l.28.29q.43-.7.84-1.41Zm0,0,.28.29q.43-.7.84-1.41Zm161.32-235a21,21,0,0,1,1,2.09c0-.77.08-1.53.11-2.3Zm0,0a21,21,0,0,1,1,2.09c0-.77.08-1.53.11-2.3ZM862.92,560.87l.28.29q.43-.7.84-1.41Zm0,0,.28.29q.43-.7.84-1.41Zm161.32-235a21,21,0,0,1,1,2.09c0-.77.08-1.53.11-2.3Zm0,0a21,21,0,0,1,1,2.09c0-.77.08-1.53.11-2.3ZM862.92,560.87l.28.29q.43-.7.84-1.41Zm0,0,.28.29q.43-.7.84-1.41Zm161.32-235a21,21,0,0,1,1,2.09c0-.77.08-1.53.11-2.3Zm0,0a21,21,0,0,1,1,2.09c0-.77.08-1.53.11-2.3ZM862.92,560.87l.28.29q.43-.7.84-1.41Zm0,0,.28.29q.43-.7.84-1.41ZM992.72,53.26a342.94,342.94,0,0,0-187.84,55.62L812,116a332.55,332.55,0,0,1,366,3.07l7.14-7.13A343,343,0,0,0,992.72,53.26ZM731.11,600c-.77-.13-1.54-.24-2.32-.33q1.25.2,2.46.51Zm-6.41-.65h-.45a42.79,42.79,0,0,1,4.42.29A25.94,25.94,0,0,0,724.7,599.36Zm-1.36,0a47.38,47.38,0,0,0-5.62.33l.39.51a25.93,25.93,0,0,1,6-.83Zm176.4-43.1c-.08.31-.17.61-.26.92l.74-.44Zm124.5-230.44a21,21,0,0,1,1,2.09c0-.77.08-1.53.11-2.3ZM862.92,560.87l.28.29q.43-.7.84-1.41Zm161.32-235a21,21,0,0,1,1,2.09c0-.77.08-1.53.11-2.3Zm0,0a21,21,0,0,1,1,2.09c0-.77.08-1.53.11-2.3ZM862.92,560.87l.28.29q.43-.7.84-1.41Zm0,0,.28.29q.43-.7.84-1.41Zm161.32-235a21,21,0,0,1,1,2.09c0-.77.08-1.53.11-2.3Zm0,0a21,21,0,0,1,1,2.09c0-.77.08-1.53.11-2.3ZM862.92,560.87l.28.29q.43-.7.84-1.41Zm0,0,.28.29q.43-.7.84-1.41Zm161.32-235a21,21,0,0,1,1,2.09c0-.77.08-1.53.11-2.3Zm0,0a21,21,0,0,1,1,2.09c0-.77.08-1.53.11-2.3ZM862.92,560.87l.28.29q.43-.7.84-1.41Zm0,0,.28.29q.43-.7.84-1.41Zm161.32-235a21,21,0,0,1,1,2.09c0-.77.08-1.53.11-2.3Zm0,0a21,21,0,0,1,1,2.09c0-.77.08-1.53.11-2.3ZM862.92,560.87l.28.29q.43-.7.84-1.41Zm0,0,.28.29q.43-.7.84-1.41Zm161.32-235a21,21,0,0,1,1,2.09c0-.77.08-1.53.11-2.3Zm0,0a21,21,0,0,1,1,2.09c0-.77.08-1.53.11-2.3ZM862.92,560.87l.28.29q.43-.7.84-1.41Zm0,0,.28.29q.43-.7.84-1.41Zm161.32-235a21,21,0,0,1,1,2.09c0-.77.08-1.53.11-2.3Zm0,0a21,21,0,0,1,1,2.09c0-.77.08-1.53.11-2.3ZM862.92,560.87l.28.29q.43-.7.84-1.41Zm161.32-235a21,21,0,0,1,1,2.09c0-.77.08-1.53.11-2.3Zm0,0a21,21,0,0,1,1,2.09c0-.77.08-1.53.11-2.3Zm0,0a21,21,0,0,1,1,2.09c0-.77.08-1.53.11-2.3Zm0,0a21,21,0,0,1,1,2.09c0-.77.08-1.53.11-2.3Zm0,0a21,21,0,0,1,1,2.09c0-.77.08-1.53.11-2.3Zm0,0a21,21,0,0,1,1,2.09c0-.77.08-1.53.11-2.3Zm0,0a21,21,0,0,1,1,2.09c0-.77.08-1.53.11-2.3Zm0,0a21,21,0,0,1,1,2.09c0-.77.08-1.53.11-2.3Zm0,0a21,21,0,0,1,1,2.09c0-.77.08-1.53.11-2.3Zm0,0a21,21,0,0,1,1,2.09c0-.77.08-1.53.11-2.3Z" transform="translate(-517.42 -52.76)"/><path class="a7c3f221-76e1-493a-aa69-5c008622e8c2" d="M1024.24,325.82a21,21,0,0,1,1,2.09c0-.77.08-1.53.11-2.3ZM899.74,556.26c-.08.31-.17.61-.26.92l.74-.44Zm-36.82,4.61.28.29q.43-.7.84-1.41Zm161.32-235a21,21,0,0,1,1,2.09c0-.77.08-1.53.11-2.3Zm0,0a21,21,0,0,1,1,2.09c0-.77.08-1.53.11-2.3Z" transform="translate(-517.42 -52.76)"/><path class="a7c3f221-76e1-493a-aa69-5c008622e8c2" d="M1024.24,325.82a21,21,0,0,1,1,2.09c0-.77.08-1.53.11-2.3Zm0,0a21,21,0,0,1,1,2.09c0-.77.08-1.53.11-2.3Zm0,0a21,21,0,0,1,1,2.09c0-.77.08-1.53.11-2.3Zm0,0a21,21,0,0,1,1,2.09c0-.77.08-1.53.11-2.3Zm0,0a21,21,0,0,1,1,2.09c0-.77.08-1.53.11-2.3Zm0,0a21,21,0,0,1,1,2.09c0-.77.08-1.53.11-2.3Zm0,0a21,21,0,0,1,1,2.09c0-.77.08-1.53.11-2.3Zm0,0a21,21,0,0,1,1,2.09c0-.77.08-1.53.11-2.3Zm0,0a21,21,0,0,1,1,2.09c0-.77.08-1.53.11-2.3Zm0,0a21,21,0,0,1,1,2.09c0-.77.08-1.53.11-2.3ZM862.92,560.87l.28.29q.43-.7.84-1.41Zm161.32-235a21,21,0,0,1,1,2.09c0-.77.08-1.53.11-2.3Zm0,0a21,21,0,0,1,1,2.09c0-.77.08-1.53.11-2.3ZM862.92,560.87l.28.29q.43-.7.84-1.41Zm0,0,.28.29q.43-.7.84-1.41Zm161.32-235a21,21,0,0,1,1,2.09c0-.77.08-1.53.11-2.3Zm0,0a21,21,0,0,1,1,2.09c0-.77.08-1.53.11-2.3ZM862.92,560.87l.28.29q.43-.7.84-1.41Zm0,0,.28.29q.43-.7.84-1.41Zm161.32-235a21,21,0,0,1,1,2.09c0-.77.08-1.53.11-2.3Zm0,0a21,21,0,0,1,1,2.09c0-.77.08-1.53.11-2.3ZM862.92,560.87l.28.29q.43-.7.84-1.41Zm0,0,.28.29q.43-.7.84-1.41Zm161.32-235a21,21,0,0,1,1,2.09c0-.77.08-1.53.11-2.3Zm0,0a21,21,0,0,1,1,2.09c0-.77.08-1.53.11-2.3ZM862.92,560.87l.28.29q.43-.7.84-1.41Zm0,0,.28.29q.43-.7.84-1.41Zm161.32-235a21,21,0,0,1,1,2.09c0-.77.08-1.53.11-2.3Zm0,0a21,21,0,0,1,1,2.09c0-.77.08-1.53.11-2.3ZM862.92,560.87l.28.29q.43-.7.84-1.41Zm0,0,.28.29q.43-.7.84-1.41ZM992.72,53.26a342.94,342.94,0,0,0-187.84,55.62L812,116a332.55,332.55,0,0,1,366,3.07l7.14-7.13A343,343,0,0,0,992.72,53.26ZM731.11,600c-.77-.13-1.54-.24-2.32-.33q1.25.2,2.46.51Zm-6.41-.65h-.45a42.79,42.79,0,0,1,4.42.29A25.94,25.94,0,0,0,724.7,599.36Zm-1.36,0a46.53,46.53,0,0,0-11.73,1.48l1.06,1.44a25.49,25.49,0,0,1,5.44-2.08,25.93,25.93,0,0,1,6-.83Zm176.4-43.1c-.08.31-.17.61-.26.92l.74-.44Zm124.5-230.44a21,21,0,0,1,1,2.09c0-.77.08-1.53.11-2.3ZM862.92,560.87l.28.29q.43-.7.84-1.41Zm161.32-235a21,21,0,0,1,1,2.09c0-.77.08-1.53.11-2.3Zm0,0a21,21,0,0,1,1,2.09c0-.77.08-1.53.11-2.3ZM862.92,560.87l.28.29q.43-.7.84-1.41Zm0,0,.28.29q.43-.7.84-1.41Zm161.32-235a21,21,0,0,1,1,2.09c0-.77.08-1.53.11-2.3Zm0,0a21,21,0,0,1,1,2.09c0-.77.08-1.53.11-2.3ZM862.92,560.87l.28.29q.43-.7.84-1.41Zm0,0,.28.29q.43-.7.84-1.41Zm161.32-235a21,21,0,0,1,1,2.09c0-.77.08-1.53.11-2.3Zm0,0a21,21,0,0,1,1,2.09c0-.77.08-1.53.11-2.3ZM862.92,560.87l.28.29q.43-.7.84-1.41Zm0,0,.28.29q.43-.7.84-1.41Zm161.32-235a21,21,0,0,1,1,2.09c0-.77.08-1.53.11-2.3Zm0,0a21,21,0,0,1,1,2.09c0-.77.08-1.53.11-2.3ZM862.92,560.87l.28.29q.43-.7.84-1.41Zm0,0,.28.29q.43-.7.84-1.41Zm161.32-235a21,21,0,0,1,1,2.09c0-.77.08-1.53.11-2.3Zm0,0a21,21,0,0,1,1,2.09c0-.77.08-1.53.11-2.3ZM862.92,560.87l.28.29q.43-.7.84-1.41Zm0,0,.28.29q.43-.7.84-1.41Zm161.32-235a21,21,0,0,1,1,2.09c0-.77.08-1.53.11-2.3Zm0,0a21,21,0,0,1,1,2.09c0-.77.08-1.53.11-2.3ZM862.92,560.87l.28.29q.43-.7.84-1.41Zm161.32-235a21,21,0,0,1,1,2.09c0-.77.08-1.53.11-2.3Zm0,0a21,21,0,0,1,1,2.09c0-.77.08-1.53.11-2.3Zm0,0a21,21,0,0,1,1,2.09c0-.77.08-1.53.11-2.3Zm0,0a21,21,0,0,1,1,2.09c0-.77.08-1.53.11-2.3Zm0,0a21,21,0,0,1,1,2.09c0-.77.08-1.53.11-2.3Zm0,0a21,21,0,0,1,1,2.09c0-.77.08-1.53.11-2.3Zm0,0a21,21,0,0,1,1,2.09c0-.77.08-1.53.11-2.3Zm0,0a21,21,0,0,1,1,2.09c0-.77.08-1.53.11-2.3Zm0,0a21,21,0,0,1,1,2.09c0-.77.08-1.53.11-2.3Zm0,0a21,21,0,0,1,1,2.09c0-.77.08-1.53.11-2.3Z" transform="translate(-517.42 -52.76)"/><path class="a7c3f221-76e1-493a-aa69-5c008622e8c2" d="M1024.24,325.82a21,21,0,0,1,1,2.09c0-.77.08-1.53.11-2.3Zm0,0a21,21,0,0,1,1,2.09c0-.77.08-1.53.11-2.3Zm0,0a21,21,0,0,1,1,2.09c0-.77.08-1.53.11-2.3Zm0,0a21,21,0,0,1,1,2.09c0-.77.08-1.53.11-2.3Zm0,0a21,21,0,0,1,1,2.09c0-.77.08-1.53.11-2.3Zm0,0a21,21,0,0,1,1,2.09c0-.77.08-1.53.11-2.3Zm0,0a21,21,0,0,1,1,2.09c0-.77.08-1.53.11-2.3Zm0,0a21,21,0,0,1,1,2.09c0-.77.08-1.53.11-2.3Zm0,0a21,21,0,0,1,1,2.09c0-.77.08-1.53.11-2.3ZM992.72,53.26a342.94,342.94,0,0,0-187.84,55.62L812,116a332.55,332.55,0,0,1,366,3.07l7.14-7.13A343,343,0,0,0,992.72,53.26Zm31.52,272.56a21,21,0,0,1,1,2.09c0-.77.08-1.53.11-2.3Zm0,0a21,21,0,0,1,1,2.09c0-.77.08-1.53.11-2.3Zm0,0a21,21,0,0,1,1,2.09c0-.77.08-1.53.11-2.3Zm0,0a21,21,0,0,1,1,2.09c0-.77.08-1.53.11-2.3Zm0,0a21,21,0,0,1,1,2.09c0-.77.08-1.53.11-2.3Zm0,0a21,21,0,0,1,1,2.09c0-.77.08-1.53.11-2.3Zm0,0a21,21,0,0,1,1,2.09c0-.77.08-1.53.11-2.3Zm0,0a21,21,0,0,1,1,2.09c0-.77.08-1.53.11-2.3Zm0,0a21,21,0,0,1,1,2.09c0-.77.08-1.53.11-2.3Z" transform="translate(-517.42 -52.76)"/><path class="a7c3f221-76e1-493a-aa69-5c008622e8c2" d="M724.12,599.37a25.93,25.93,0,0,0-6,.83,25.49,25.49,0,0,0-5.44,2.08l-1.06-1.44a46.53,46.53,0,0,1,11.73-1.48Z" transform="translate(-517.42 -52.76)"/><path class="a7c3f221-76e1-493a-aa69-5c008622e8c2" d="M724.7,599.36a25.94,25.94,0,0,1,4,.3,42.79,42.79,0,0,0-4.42-.29Z" transform="translate(-517.42 -52.76)"/><path class="a7c3f221-76e1-493a-aa69-5c008622e8c2" d="M731.25,600.19q-1.21-.32-2.46-.51c.78.09,1.55.2,2.32.33Z" transform="translate(-517.42 -52.76)"/><path class="a7c3f221-76e1-493a-aa69-5c008622e8c2" d="M864,559.75q-.4.71-.84,1.41l-.28-.29Z" transform="translate(-517.42 -52.76)"/><path class="a7c3f221-76e1-493a-aa69-5c008622e8c2" d="M864,559.75q-.4.71-.84,1.41l-.28-.29Z" transform="translate(-517.42 -52.76)"/><path class="a7c3f221-76e1-493a-aa69-5c008622e8c2" d="M731.49,691.49l-.26.27-3,.19C729.33,691.83,730.42,691.68,731.49,691.49Z" transform="translate(-517.42 -52.76)"/><path class="a7c3f221-76e1-493a-aa69-5c008622e8c2" d="M724.12,599.37a25.93,25.93,0,0,0-6,.83,25.49,25.49,0,0,0-5.44,2.08l-1.06-1.44a46.53,46.53,0,0,1,11.73-1.48Z" transform="translate(-517.42 -52.76)"/><path class="a7c3f221-76e1-493a-aa69-5c008622e8c2" d="M728.67,599.66a42.79,42.79,0,0,0-4.42-.29h.45A25.94,25.94,0,0,1,728.67,599.66Z" transform="translate(-517.42 -52.76)"/><path class="a7c3f221-76e1-493a-aa69-5c008622e8c2" d="M731.22,650.5a25.77,25.77,0,0,1-5.38.79C727.65,651.06,729.43,650.8,731.22,650.5Z" transform="translate(-517.42 -52.76)"/><path class="a7c3f221-76e1-493a-aa69-5c008622e8c2" d="M731.11,600l.14.18q-1.21-.32-2.46-.51C729.57,599.77,730.34,599.88,731.11,600Z" transform="translate(-517.42 -52.76)"/><path class="a7c3f221-76e1-493a-aa69-5c008622e8c2" d="M728.11,692a47,47,0,0,1-4.77.24c-.56,0-1.12,0-1.67,0C723.83,692.13,726,692.06,728.11,692Z" transform="translate(-517.42 -52.76)"/><path class="a7c3f221-76e1-493a-aa69-5c008622e8c2" d="M724.12,599.37a25.93,25.93,0,0,0-6,.83,25.49,25.49,0,0,0-5.44,2.08l-1.06-1.44a46.53,46.53,0,0,1,11.73-1.48Z" transform="translate(-517.42 -52.76)"/><path class="a7c3f221-76e1-493a-aa69-5c008622e8c2" d="M731.22,650.5a25.77,25.77,0,0,1-5.38.79C727.65,651.06,729.43,650.8,731.22,650.5Z" transform="translate(-517.42 -52.76)"/><path class="a7c3f221-76e1-493a-aa69-5c008622e8c2" d="M731.11,600l.14.18q-1.21-.32-2.46-.51C729.57,599.77,730.34,599.88,731.11,600Z" transform="translate(-517.42 -52.76)"/><path class="a7c3f221-76e1-493a-aa69-5c008622e8c2" d="M728.67,599.66a42.79,42.79,0,0,0-4.42-.29h.45A25.94,25.94,0,0,1,728.67,599.66Z" transform="translate(-517.42 -52.76)"/><path class="a7c3f221-76e1-493a-aa69-5c008622e8c2" d="M731.22,650.5a25.77,25.77,0,0,1-5.38.79C727.65,651.06,729.43,650.8,731.22,650.5Z" transform="translate(-517.42 -52.76)"/><path class="a7c3f221-76e1-493a-aa69-5c008622e8c2" d="M1025.34,325.61c0,.77-.07,1.53-.11,2.3a21,21,0,0,0-1-2.09Z" transform="translate(-517.42 -52.76)"/><path class="a7c3f221-76e1-493a-aa69-5c008622e8c2" d="M1025.34,325.61c0,.77-.07,1.53-.11,2.3a21,21,0,0,0-1-2.09Z" transform="translate(-517.42 -52.76)"/><path class="a7c3f221-76e1-493a-aa69-5c008622e8c2" d="M1025.34,325.61c0,.77-.07,1.53-.11,2.3a21,21,0,0,0-1-2.09Z" transform="translate(-517.42 -52.76)"/><path class="a7c3f221-76e1-493a-aa69-5c008622e8c2" d="M1025.34,325.61c0,.77-.07,1.53-.11,2.3a21,21,0,0,0-1-2.09Z" transform="translate(-517.42 -52.76)"/><path class="a7c3f221-76e1-493a-aa69-5c008622e8c2" d="M1025.34,325.61c0,.77-.07,1.53-.11,2.3a21,21,0,0,0-1-2.09Z" transform="translate(-517.42 -52.76)"/><path class="a7c3f221-76e1-493a-aa69-5c008622e8c2" d="M1025.34,325.61c0,.77-.07,1.53-.11,2.3a21,21,0,0,0-1-2.09Z" transform="translate(-517.42 -52.76)"/><path class="a7c3f221-76e1-493a-aa69-5c008622e8c2" d="M782.62,632.7c48.59-27.44,43.55-27,70.23-45.54q10.75-7.47,21.77-14.58,12.27-7.94,24.86-15.4l.74-.44q16-9.5,32.55-18.23,4.54-2.4,9.12-4.74,9.27-4.75,18.7-9.25a769.76,769.76,0,0,1,117-44.68c-.77-.22,2.31-.07,1.55-.3,29.09-5.55,53.19-14.68,79.61-26.24a389.78,389.78,0,0,0,44.7-23.08h0c1.13-.67,2.24-1.36,3.36-2.06q6.32-3.87,12.48-8a138.45,138.45,0,0,0,14.94-16.33c.38-.49.76-1,1.13-1.49A138.1,138.1,0,0,0,1254.35,270l25.26-14.59a167.2,167.2,0,0,1,6.91,107.11,118.92,118.92,0,0,0,23.41-66.9,0,0,0,0,0,0,0c.06-1.42.09-2.84.09-4.27a120.41,120.41,0,0,0-105.57-119.17,168.77,168.77,0,0,1,52.41,44.3L1231.59,231a139.1,139.1,0,0,0-91.26-49.49h0a140.52,140.52,0,0,0-16.11-.92q-4,0-7.91.22c-3.28.18-6.53.48-9.74.88A138.74,138.74,0,0,0,1044,205.92c-1.5,1-3,2.12-4.43,3.24a139.25,139.25,0,0,0-32.15,34.59,137.24,137.24,0,0,0-16.64,35.82q-1.8,6-3,12.2c-.17.81-.33,1.63-.48,2.45a139,139,0,0,0-2.24,24.9v.54l-25.74,5-3,.59c-.07-2-.11-4.06-.11-6.1a165.85,165.85,0,0,1,18-75.37q-2.4-3.69-5-7.22a139.16,139.16,0,0,0-28.89-28.71q-2.21-1.63-4.48-3.18a138.75,138.75,0,0,0-57.59-22.48,139.56,139.56,0,0,0-153.82,96.41,137.35,137.35,0,0,0-6,37.88q0,1.33,0,2.67a137.38,137.38,0,0,0,14.5,61.62,140,140,0,0,0,10,16.88c1.05,1.5,2.12,3,3.22,4.44.48.65,1,1.3,1.48,1.94l24.17,24.17,51.14,51.14,54.08,54.08,6.77,6.77L864,559.75l-1.12,1.12L748.45,446.41,729,427q-1.83-2.14-3.58-4.35A165.78,165.78,0,0,1,690.06,334c-.44-4.89-.66-9.85-.66-14.85v-.49A167.1,167.1,0,0,1,848.15,152.15c3.07-.18,6.17-.26,9.28-.26a167.79,167.79,0,0,1,99,32.09q2.21,1.61,4.37,3.29a168.07,168.07,0,0,1,28,27.62c.67.83,1.33,1.67,2,2.52a168.21,168.21,0,0,1,22.42-23.86q2.88-2.52,5.86-4.91,2.13-1.69,4.32-3.34a168.22,168.22,0,0,1,35.72-20.41,268.75,268.75,0,0,1,100.09-27q9.48-.68,19.15-.67,13,0,25.64,1.2,3.26.3,6.5.69h.09c3.43,0,6.82.15,10.19.39,0,0,0,0,0,0a0,0,0,0,0,0,0c3.34.24,6.66.6,9.94,1.06a145.87,145.87,0,0,1,49.84,16.63l0,0h0a145.66,145.66,0,0,1,74.19,107.45,0,0,0,0,1,0,0,145.34,145.34,0,0,1-16.15,89.18q-1.26,2.31-2.59,4.57l0,0c-.55.81-1.12,1.62-1.69,2.42q-4.83,6.9-10,13.57-4,5.16-8.1,10.17s0,0,0,0a393.75,393.75,0,0,1-125,100.44l-14.73,14.73-135.9,135.9-51.43,51.43L927.2,625.16l20.72-20.72,41.34,41.34,26.63-26.63,106.82-106.83q-16,4.68-32.63,8h0a771.36,771.36,0,0,0-124.54,49.29l-1.09.55q-16.8,8.43-33.13,17.65c-8.79,5-17.38,9.1-25.95,14.4-7.48,4.61-12.17,7.92-19.47,12.77-25.51,17,7.2-7.23-54,36.93-1.39,1-8.62,6.47-18,12.22-3.23,2-15.43,10.38-18.9,11.94-2.17,1-2.92,1.29-5.14,2.19a188.52,188.52,0,0,1-58.58,13.52l.26-.27c-1.07.19-2.16.34-3.25.46h-.13c-2.14.1-4.28.17-6.44.2h-.13A46.56,46.56,0,0,1,677,651.4a47.38,47.38,0,0,1-.34-5.62,46.47,46.47,0,0,1,34.92-44.94l1.06,1.44a26,26,0,0,0,12,49l1,0h.1a25.77,25.77,0,0,0,5.38-.79,187.44,187.44,0,0,0,20-4.34q3.29-.9,6.52-1.92,5.51-1.72,10.87-3.77l1-.38S782.13,633,782.62,632.7Z" transform="translate(-517.42 -52.76)"/><path class="a7c3f221-76e1-493a-aa69-5c008622e8c2" d="M1185.2,112l-7.14,7.13A332.55,332.55,0,0,0,812,116l-7.15-7.14A345,345,0,0,1,1185.2,112Z" transform="translate(-517.42 -52.76)"/><path class="a7c3f221-76e1-493a-aa69-5c008622e8c2" d="M1049.13,336.84a45.71,45.71,0,0,1-45.74,45.52c-1,0-2,0-3-.1a45.78,45.78,0,0,1-37-23.35l24.14-4.67,2-.37c.21.81.43,1.62.65,2.42.38.25.77.5,1.17.74a23.69,23.69,0,0,0,31.17-6.35,23.41,23.41,0,0,0,2.76-22.77c0-.77.08-1.53.11-2.3l21.13-4.09A45.21,45.21,0,0,1,1049.13,336.84Z" transform="translate(-517.42 -52.76)"/><path class="a7c3f221-76e1-493a-aa69-5c008622e8c2" d="M1025.34,325.61c0,.77-.07,1.53-.11,2.3a21,21,0,0,0-1-2.09Z" transform="translate(-517.42 -52.76)"/><path class="a7c3f221-76e1-493a-aa69-5c008622e8c2" d="M864,559.75q-.4.71-.84,1.41l-.28-.29Z" transform="translate(-517.42 -52.76)"/><path class="a7c3f221-76e1-493a-aa69-5c008622e8c2" d="M900.22,556.74l-.74.44c.09-.31.18-.61.26-.92Z" transform="translate(-517.42 -52.76)"/><path class="a7c3f221-76e1-493a-aa69-5c008622e8c2" d="M864,559.75q-.4.71-.84,1.41l-.28-.29Z" transform="translate(-517.42 -52.76)"/><path class="a7c3f221-76e1-493a-aa69-5c008622e8c2" d="M900.22,556.74l-.74.44c.09-.31.18-.61.26-.92Z" transform="translate(-517.42 -52.76)"/></g></svg>